<?xml version="1.0" encoding="UTF-8"?>
<svg width="200" height="200" viewBox="0 0 200 200" version="1.1" xmlns="http://www.w3.org/2000/svg">
    <!-- Coin Outer Ring -->
    <circle cx="100" cy="100" r="90" fill="#FAC213" stroke="#B27D00" stroke-width="4"/>
    
    <!-- Inner Circle -->
    <circle cx="100" cy="100" r="82" fill="#FFD700"/>
    
    <!-- Highlights -->
    <ellipse cx="70" cy="70" rx="55" ry="45" fill="#FFE566" fill-opacity="0.6"/>
    
    <!-- Edge Details -->
    <g stroke="#B27D00" stroke-width="2" fill="none">
        <path d="M30,100 A70,70 0 0,1 170,100" />
        <path d="M35,75 A65,65 0 0,1 165,75" />
        <path d="M35,125 A65,65 0 0,1 165,125" />
    </g>
    
    <!-- Dollar Sign -->
    <g transform="translate(100, 100)">
        <path d="M-20,-30 L20,-30 C30,-30 40,-20 40,-10 C40,0 30,10 20,10 L-20,10 C-30,10 -40,20 -40,30 C-40,40 -30,50 -20,50 L20,50"
              stroke="#B27D00" stroke-width="10" stroke-linecap="round" fill="none"/>
        <line x1="0" y1="-40" x2="0" y2="60" stroke="#B27D00" stroke-width="10" stroke-linecap="round"/>
    </g>
</svg>